#!OML:ASF X:\für Bonn\!DataBase\2005_08_11_Bastian_Final\c3d\Bastian.ASF
:FULLY-SPECIFIED
:DEGREES
614
root 1.4274 1.22663 25.3313 -807.771 -175.987 -717.838
lowerback -1.69763 -2.18178 -3.81906
upperback 3.43159 -2.83283 0.160327
thorax 4.69434 -1.57572 2.1332
lowerneck -28.112 -2.78938 -1.4085
upperneck 14.5176 -3.39659 0.871983
head 9.13376 -1.53698 0.00797491
rclavicle -7.95139e-016 -1.86858e-014
rhumerus -63.7036 55.848 -111
rradius 24.0052
rwrist -9.341
rhand -14.3919 -8.09179
rfingers 7.12502
rthumb 11.7512 -37.7422
lclavicle -7.95139e-016 -1.86858e-014
lhumerus -46.1875 -42.7463 92.7762
lradius 18.1685
lwrist 19.6277
lhand -8.05073 -3.24552
lfingers 7.12502
lthumb 17.86 25.9544
rfemur -14.0058 9.96263 17.8548
rtibia 33.4391
rfoot -12.6485 -26.5986
rtoes 5.66651
lfemur -7.03082 5.30587 -21.6403
ltibia 17.0368
lfoot 2.48289 2.72831
ltoes -26.6763
615
root 1.42653 1.22674 25.3315 -807.747 -176.008 -717.839
lowerback -1.72726 -2.17434 -3.80676
upperback 3.41792 -2.82193 0.167673
thorax 4.69589 -1.56947 2.13381
lowerneck -28.4215 -2.71983 -1.28498
upperneck 14.5089 -3.32636 0.801987
head 9.17581 -1.50226 -0.0281062
rclavicle -2.14687e-014 -1.40143e-014
rhumerus -63.4928 55.7315 -110.755
rradius 23.932
rwrist -9.29972
rhand -14.3562 -8.20378
rfingers 7.12502
rthumb 11.7856 -37.8522
lclavicle -2.14687e-014 -1.40143e-014
lhumerus -46.2527 -42.8703 92.8779
lradius 18.1516
lwrist 19.794
lhand -7.99308 -3.30913
lfingers 7.12502
lthumb 17.9155 25.8857
rfemur -14.029 9.93238 17.8692
rtibia 33.4391
rfoot -12.654 -26.5957
rtoes 5.65354
lfemur -7.05648 5.28519 -21.624
ltibia 17.035
lfoot 2.46289 2.76004
ltoes -26.725
616
root 1.42587 1.22673 25.3318 -807.725 -176.01 -717.84
lowerback -1.75594 -2.17569 -3.81247
upperback 3.40628 -2.82191 0.17093
thorax 4.70054 -1.56927 2.13952
lowerneck -28.7088 -2.64698 -1.21498
upperneck 14.4787 -3.24586 0.801707
head 9.2089 -1.45743 -0.0290802
rclavicle 0 -1.14301e-014
rhumerus -63.2639 55.6131 -110.48
rradius 23.8628
rwrist -9.24122
rhand -14.3468 -8.29358
rfingers 7.12502
rthumb 11.7947 -37.9415
lclavicle 0 -1.14301e-014
lhumerus -46.24 -42.889 92.8843
lradius 18.142
lwrist 19.8805
lhand -7.93273 -3.36155
lfingers 7.12502
lthumb 17.9736 25.8279
rfemur -14.0532 9.95795 17.8596
rtibia 33.4398
rfoot -12.7057 -26.6129
rtoes 5.77668
lfemur -7.07997 5.27111 -21.6276
ltibia 17.0325
lfoot 2.45876 2.78928
ltoes -26.7699
617
root 1.42475 1.2266 25.333 -807.703 -176.01 -717.84
lowerback -1.77206 -2.1697 -3.80698
upperback 3.38705 -2.81225 0.161001
thorax 4.68812 -1.56307 2.1267
lowerneck -28.9919 -2.55876 -1.08457
upperneck 14.4813 -3.15836 0.746863
head 9.2508 -1.41271 -0.0577743
rclavicle 7.95139e-015 -1.2424e-014
rhumerus -63.3101 55.6025 -110.516
rradius 23.8419
rwrist -9.37009
rhand -14.3736 -8.41694
rfingers 7.12502
rthumb 11.7688 -38.0663
lclavicle 7.95139e-015 -1.2424e-014
lhumerus -46.3094 -42.9803 92.9445
lradius 18.1714
lwrist 20.0003
lhand -7.88288 -3.39864
lfingers 7.12502
lthumb 18.0215 25.7864
rfemur -14.0811 9.9179 17.8493
rtibia 33.4411
rfoot -12.6458 -26.6198
rtoes 5.49674
lfemur -7.10421 5.26376 -21.6344
ltibia 17.0333
lfoot 2.45841 2.8148
ltoes -26.8675
618
root 1.42392 1.22677 25.3333 -807.68 -176.007 -717.841
lowerback -1.81525 -2.16653 -3.819
upperback 3.3912 -2.80569 0.167092
thorax 4.71758 -1.56077 2.13828
lowerneck -29.3284 -2.47558 -0.991184
upperneck 14.5051 -3.06135 0.682542
head 9.30904 -1.36674 -0.0830035
rclavicle -3.97569e-014 2.75317e-014
rhumerus -63.0306 55.4892 -110.198
rradius 23.7671
rwrist -9.32065
rhand -14.3634 -8.48753
rfingers 7.12502
rthumb 11.7787 -38.1363
lclavicle -3.97569e-014 2.75317e-014
lhumerus -46.335 -43.1023 93.0434
lradius 18.1641
lwrist 20.1872
lhand -7.8713 -3.40795
lfingers 7.12502
lthumb 18.0327 25.7761
rfemur -14.1048 9.88621 17.8374
rtibia 33.4437
rfoot -12.6463 -26.6011
rtoes 5.4972
lfemur -7.126 5.24275 -21.6443
ltibia 17.0258
lfoot 2.4548 2.85152
ltoes -26.8967
